<?xml version="1.0" encoding="UTF-8"?>
<svg version="1.1" xmlns="http://www.w3.org/2000/svg" width="1080" height="1080">
<path d="M0 0 C356.4 0 712.8 0 1080 0 C1080 356.4 1080 712.8 1080 1080 C723.6 1080 367.2 1080 0 1080 C0 723.6 0 367.2 0 0 Z " fill="#FEFEFE" transform="translate(0,0)"/>
<path d="M0 0 C0.99787537 -0.00623996 1.99575073 -0.01247993 3.02386475 -0.01890898 C6.3416766 -0.03476482 9.65874621 -0.02226347 12.9765625 -0.00964355 C15.36572699 -0.01506794 17.75488813 -0.02219238 20.14404297 -0.03088379 C25.94406216 -0.04719505 31.74384858 -0.04485575 37.54387474 -0.03323323 C42.26038687 -0.02417565 46.97684103 -0.02298491 51.69335938 -0.02732849 C52.36630539 -0.02794142 53.0392514 -0.02855436 53.73258972 -0.02918586 C55.09994509 -0.03046485 56.46730043 -0.0317617 57.83465576 -0.03307623 C70.63676331 -0.04446462 83.43875602 -0.03139574 96.24084473 -0.00987476 C107.21009979 0.00799468 118.17918549 0.00489008 129.1484375 -0.0135498 C141.90676661 -0.03498738 154.66499524 -0.04336615 167.42333984 -0.03110075 C168.78548176 -0.02982664 170.14762368 -0.02856916 171.50976562 -0.02732849 C172.17985153 -0.02671139 172.84993744 -0.02609429 173.54032898 -0.02545848 C178.24761378 -0.02201422 182.9548345 -0.02781391 187.66210938 -0.0372467 C194.00534647 -0.04882357 200.34826456 -0.04074537 206.69146729 -0.01766968 C209.01580272 -0.01239248 211.34016513 -0.01387935 213.66448975 -0.02272034 C216.84439407 -0.03369813 220.02328474 -0.01988433 223.203125 0 C224.11656677 -0.00892289 225.03000854 -0.01784577 225.97113037 -0.02703905 C235.07415877 0.08290013 243.16150562 3.00805897 249.7928772 9.37052917 C257.74543721 18.76842977 258.48051273 28.62277494 258.328125 40.33215332 C258.3270847 41.93011981 258.32813205 43.52808887 258.33114624 45.12605286 C258.33096808 48.45369332 258.310372 51.78035173 258.27392578 55.10778809 C258.22844145 59.35108872 258.22749614 63.59296617 258.24096107 67.8364439 C258.24767358 71.12842745 258.2343212 74.42009229 258.21470261 77.71201515 C258.20706317 79.27594138 258.20467507 80.83990322 258.2078743 82.40384483 C258.21199173 94.43213931 256.75284041 102.83592864 248.390625 111.78527832 C240.93563657 118.9635532 233.32491378 119.80763551 223.48796082 119.78208923 C222.48448162 119.78732591 221.48100242 119.79256259 220.44711477 119.79795796 C217.09255089 119.81293142 213.7381399 119.81366253 210.38354492 119.81433105 C207.97512048 119.82195425 205.56669846 119.83038203 203.15827942 119.83955383 C196.62103822 119.86148839 190.08383311 119.87031832 183.54656386 119.87538028 C179.4610488 119.878643 175.3755431 119.88516887 171.29003334 119.89238167 C159.96719639 119.91193903 148.64436811 119.9283488 137.32151318 119.9312582 C136.23585682 119.93153956 136.23585682 119.93153956 135.12826802 119.9318266 C133.66117148 119.93219283 132.19407493 119.93255653 130.72697838 119.93291771 C129.6346546 119.93319192 129.6346546 119.93319192 128.52026367 119.93347168 C127.79115405 119.93365223 127.06204443 119.93383278 126.31084058 119.9340188 C114.49714907 119.93756034 102.68363984 119.96458529 90.87001153 120.00196957 C78.72661863 120.04008844 66.58331611 120.05941593 54.43986207 120.05971771 C47.62751787 120.06030141 40.81539128 120.06873675 34.00310326 120.09771538 C27.59509011 120.12485013 21.18739401 120.12610371 14.77934074 120.11005974 C12.43080456 120.10824491 10.08224363 120.1149389 7.73376083 120.13087845 C4.52070458 120.15135234 1.30915314 120.14077814 -1.90388489 120.12266541 C-3.28878993 120.14246536 -3.28878993 120.14246536 -4.70167285 120.16266531 C-13.22140889 120.05341226 -19.99551525 116.92464164 -26.2734375 111.19543457 C-32.07001182 104.94771178 -34.50045817 98.08563388 -34.60717773 89.65661621 C-34.61696152 88.96344299 -34.6267453 88.27026978 -34.63682556 87.55609131 C-34.66675157 85.26011046 -34.68816739 82.96418829 -34.70703125 80.66809082 C-34.71360308 79.88044279 -34.7201749 79.09279476 -34.72694588 78.28127861 C-34.75954105 74.10481437 -34.78398111 69.92837548 -34.8034668 65.75183105 C-34.82120958 62.31329575 -34.85591409 58.87559146 -34.90600586 55.43737793 C-34.96662295 51.27111463 -34.99699987 47.10561563 -35.00663948 42.93893242 C-35.01513215 41.36063173 -35.03379503 39.78234801 -35.0633831 38.20430183 C-35.25824784 27.21158929 -33.98046562 18.10042555 -26.58934021 9.37135315 C-19.04950278 2.13251883 -10.1911671 -0.09955164 0 0 Z " fill="#FDEB00" transform="translate(504.3984375,482.4920654296875)"/>
<path d="M0 0 C2.36619947 0.02140697 4.72935318 0.00015968 7.09545898 -0.02539062 C15.10075538 -0.04053289 21.92644453 0.25902185 28.93725586 4.52148438 C29.90791992 5.00488281 30.87858398 5.48828125 31.87866211 5.98632812 C40.40324333 10.77584693 47.74287341 16.75354777 55.19018555 23.05322266 C56.66384095 24.29170276 58.16130287 25.50177417 59.66381836 26.70507812 C60.72729492 27.57326172 60.72729492 27.57326172 61.81225586 28.45898438 C62.38717773 28.92175781 62.96209961 29.38453125 63.55444336 29.86132812 C68.35650265 35.62651231 67.27484403 43.89660242 67.25292969 50.9440918 C67.2497592 53.08173142 67.27330446 55.2179987 67.29858398 57.35546875 C67.30085642 58.72460764 67.30156073 60.09375023 67.30053711 61.46289062 C67.30351807 62.69724854 67.30649902 63.93160645 67.30957031 65.20336914 C66.77573207 69.96100557 64.97494572 72.47668705 61.65600586 75.81835938 C58.31991059 77.90821216 56.33646829 77.86258747 52.43725586 77.77148438 C47.8087571 77.8359395 47.8087571 77.8359395 44.12084961 80.24804688 C42.9324926 82.29693827 41.94183971 84.37865959 40.93725586 86.52148438 C36.21725582 90.82501382 31.20325588 91.0394061 25.03100586 91.00195312 C20.6996075 90.32927383 18.47971372 88.50282632 15.36303711 85.54101562 C13.93725586 83.52148438 13.93725586 83.52148438 12.93725586 78.52148438 C-0.92274414 78.52148438 -14.78274414 78.52148438 -29.06274414 78.52148438 C-29.39274414 80.17148437 -29.72274414 81.82148437 -30.06274414 83.52148438 C-31.58618164 85.28710938 -31.58618164 85.28710938 -33.43774414 86.77148438 C-34.04360352 87.27164063 -34.64946289 87.77179688 -35.27368164 88.28710938 C-39.9382991 91.50549172 -45.6410163 91.0582121 -51.06274414 90.52148438 C-55.49983972 88.5494419 -57.04406462 86.62783545 -59.03540039 82.40820312 C-60.66893295 79.73763225 -61.40944147 78.70208615 -64.46313477 77.85791016 C-67.37526474 77.68839658 -70.21083658 77.71057298 -73.12524414 77.83398438 C-83.32915089 78.14520022 -83.32915089 78.14520022 -86.72290039 75.25976562 C-88.70573264 71.20738835 -88.49629389 69.00149844 -88.06274414 64.52148438 C-87.40274414 63.53148437 -86.74274414 62.54148437 -86.06274414 61.52148438 C-85.40274414 61.52148438 -84.74274414 61.52148438 -84.06274414 61.52148438 C-84.12075195 60.36390625 -84.17875977 59.20632813 -84.23852539 58.01367188 C-84.28544679 56.4746499 -84.3309444 54.93558405 -84.37524414 53.39648438 C-84.43808594 52.25566406 -84.43808594 52.25566406 -84.50219727 51.09179688 C-84.59079505 46.98085982 -84.37809067 44.35888699 -81.73071289 41.10351562 C-75.65835253 35.22675106 -69.91495735 33.81177623 -61.75805664 32.23242188 C-60.86860352 31.9978125 -59.97915039 31.76320313 -59.06274414 31.52148438 C-58.73274414 30.86148438 -58.40274414 30.20148437 -58.06274414 29.52148438 C-57.01086914 29.26238281 -55.95899414 29.00328125 -54.87524414 28.73632812 C-50.64050579 27.62266094 -48.07143778 25.14906392 -45.06274414 22.08398438 C-40.36369916 17.53119968 -35.52872374 13.39064181 -30.25024414 9.52148438 C-29.65276367 9.07748291 -29.0552832 8.63348145 -28.43969727 8.17602539 C-26.6783527 6.90380835 -24.88276445 5.70783855 -23.06274414 4.52148438 C-22.26332397 3.93657227 -22.26332397 3.93657227 -21.44775391 3.33984375 C-14.99643854 -0.72687765 -7.35515949 -0.07921058 0 0 Z " fill="#DC2F45" transform="translate(382.062744140625,494.478515625)"/>
<path d="M0 0 C5.58571639 3.33017341 9.64042999 8.22773534 11.5625 14.4375 C12.50094603 24.18746035 12.69160158 33.27665204 6.5625 41.4375 C1.92767878 46.3228521 -4.27326199 48.55971856 -10.9375 48.8125 C-17.76529629 48.50747817 -22.52567125 46.79126486 -27.25 41.75 C-33.0299431 34.49208059 -34.37090352 27.63088537 -33.4375 18.4375 C-32.0759297 11.10190806 -29.8421527 5.78545455 -23.79296875 1.1875 C-16.85435633 -3.01949026 -7.38804946 -3.27569947 0 0 Z " fill="#080700" transform="translate(719.4375,520.5625)"/>
<path d="M0 0 C6.2184375 -0.185625 6.2184375 -0.185625 12.5625 -0.375 C13.85615479 -0.42962402 15.14980957 -0.48424805 16.48266602 -0.54052734 C26.02339232 -0.67823007 26.02339232 -0.67823007 30.27734375 2.8984375 C33.91851714 6.6344006 34.39668733 9.55643392 34.35546875 14.67578125 C33.7532279 18.61350991 31.84960759 20.2829323 29 23 C28.01 23.66 27.02 24.32 26 25 C26.59296875 25.49371094 27.1859375 25.98742187 27.796875 26.49609375 C30.65617868 29.74576336 31.8241967 33.02151156 33.25 37.0625 C33.518125 37.78244141 33.78625 38.50238281 34.0625 39.24414062 C35.16792958 42.28125198 36 44.74431841 36 48 C32.7 48 29.4 48 26 48 C25.67386719 46.96359375 25.34773437 45.9271875 25.01171875 44.859375 C24.57071653 43.4894532 24.12928777 42.11966867 23.6875 40.75 C23.36749023 39.72712891 23.36749023 39.72712891 23.04101562 38.68359375 C21.42835677 33.25672025 21.42835677 33.25672025 18 29 C15.03 28.67 12.06 28.34 9 28 C9 34.6 9 41.2 9 48 C6.03 48 3.06 48 0 48 C0 32.16 0 16.32 0 0 Z " fill="#040400" transform="translate(598,520)"/>
<path d="M0 0 C4.29 0 8.58 0 13 0 C16.3987531 8.26589952 19.44589874 16.63844934 22.42871094 25.06103516 C23.2564295 27.39311497 24.0930269 29.72189693 24.9296875 32.05078125 C25.45888166 33.54147212 25.98754692 35.03235089 26.515625 36.5234375 C26.8905307 37.56097672 26.8905307 37.56097672 27.27301025 38.61947632 C28.45418604 41.98693135 29 44.37846884 29 48 C25.7 48 22.4 48 19 48 C18.01 44.7 17.02 41.4 16 38 C9.73 37.67 3.46 37.34 -3 37 C-3.99 40.63 -4.98 44.26 -6 48 C-9.3 48 -12.6 48 -16 48 C-13.41015461 37.70606578 -9.86636322 27.80253867 -6.3125 17.8125 C-5.69950936 16.08020563 -5.08687628 14.34778468 -4.47460938 12.61523438 C-2.98719046 8.40868595 -1.49494612 4.20387895 0 0 Z " fill="#060600" transform="translate(561,520)"/>
<path d="M0 0 C4.6735922 1.95904335 7.54873279 4.65489304 9.9765625 9.09765625 C11.83146786 14.04974304 11.9349054 18.79586848 9.8359375 23.6796875 C6.99637353 28.48578181 4.2087027 31.57756785 -1.171875 33.37109375 C-6.23902866 34.03170045 -11.08957701 34.52792596 -15.66796875 31.984375 C-20.19844854 28.15217099 -22.75547957 24.69741536 -23.5078125 18.6875 C-23.59213931 12.74245959 -23.46379775 8.87761263 -19.171875 4.37109375 C-13.18869579 -0.70718025 -7.59399738 -2.19898126 0 0 Z " fill="#2D3135" transform="translate(417.171875,551.62890625)"/>
<path d="M0 0 C4.08460988 2.35273529 6.98954888 5.00377125 8.75 9.4375 C9.6827068 15.60771419 9.46364682 21.23839446 5.75 26.4375 C1.34941746 30.85010598 -2.34407636 32.58658361 -8.5625 32.75 C-13.65301669 32.6762244 -16.45106133 32.05553683 -20.25 28.4375 C-24.4049208 23.64166056 -26.09308059 19.26864547 -25.73046875 12.8984375 C-24.76729518 7.96510946 -22.43162343 4.353864 -18.67578125 1.0546875 C-12.83085333 -2.84193111 -6.32876226 -2.75319036 0 0 Z " fill="#2D3135" transform="translate(345.25,552.5625)"/>
<path d="M0 0 C3.72813965 2.16372197 6.04367195 4.91161144 8.5625 8.375 C6.71151982 10.42429949 5.05642628 12.1041372 2.625 13.4375 C0.5625 13.375 0.5625 13.375 -2.0625 11 C-2.84625 10.13375 -3.63 9.2675 -4.4375 8.375 C-7.66609847 6.76070077 -10.94743653 6.77929343 -14.4375 7.375 C-17.46258145 9.11102105 -19.85540069 11.21080137 -21.4375 14.375 C-21.58879552 17.15941955 -21.66888429 19.90212487 -21.6875 22.6875 C-21.708125 23.44740234 -21.72875 24.20730469 -21.75 24.99023438 C-21.78216676 29.61822687 -21.44716447 32.62698327 -18.4375 36.375 C-14.20898668 39.19400888 -10.40425142 39.16968023 -5.4375 38.375 C-2.43570559 36.20755116 -2.43570559 36.20755116 -0.4375 33.375 C0.5625 32.375 1.5625 31.375 2.5625 30.375 C4.5425 31.365 6.5225 32.355 8.5625 33.375 C8.10701813 38.27143015 7.15292714 40.96409421 3.5625 44.375 C-2.41536848 48.1203176 -8.454225 49.60294591 -15.4375 48.375 C-22.83591332 45.84055812 -27.92126873 42.25577483 -31.5390625 35.23828125 C-32.77125933 31.31132353 -32.80574044 27.65541643 -32.8125 23.5625 C-32.84923828 22.40911133 -32.84923828 22.40911133 -32.88671875 21.23242188 C-32.92059361 14.54213633 -31.08178108 9.43928993 -26.69140625 4.3515625 C-26.13324219 3.90554688 -25.57507813 3.45953125 -25 3 C-24.44441406 2.53851562 -23.88882812 2.07703125 -23.31640625 1.6015625 C-16.50860555 -2.84261509 -7.41181708 -3.38181768 0 0 Z " fill="#090800" transform="translate(533.4375,520.625)"/>
<path d="M0 0 C3.3 0 6.6 0 10 0 C10.32798584 0.99443115 10.65597168 1.9888623 10.99389648 3.01342773 C12.20783378 6.69135211 13.42569899 10.3679656 14.64477539 14.04418945 C15.1725472 15.63758243 15.69924306 17.2313322 16.22485352 18.82543945 C16.97912709 21.11243105 17.73721989 23.39812517 18.49609375 25.68359375 C18.73154404 26.40026718 18.96699432 27.11694061 19.20957947 27.85533142 C20.13258873 31.19092096 20.13258873 31.19092096 22 34 C25.63 22.78 29.26 11.56 33 0 C36.3 0 39.6 0 43 0 C40.63150658 9.19240454 37.7158335 18.16002884 34.70166016 27.15576172 C33.86558112 29.65313424 33.03604883 32.15261939 32.20703125 34.65234375 C31.67746879 36.23971198 31.14753489 37.82695635 30.6171875 39.4140625 C30.3692746 40.16184967 30.12136169 40.90963684 29.86593628 41.68008423 C28.11500094 46.88499906 28.11500094 46.88499906 27 48 C25.14712498 48.07226502 23.29166122 48.0838122 21.4375 48.0625 C20.42558594 48.05347656 19.41367187 48.04445313 18.37109375 48.03515625 C17.19740234 48.01775391 17.19740234 48.01775391 16 48 C12.47315277 39.62045276 9.51558599 31.0531775 6.57128906 22.45678711 C5.7428405 20.04162807 4.90673711 17.62920355 4.0703125 15.21679688 C3.54120178 13.67724303 3.01253933 12.13753503 2.484375 10.59765625 C2.23443787 9.87892838 1.98450073 9.1602005 1.72698975 8.41969299 C0.72816619 5.4838181 0 3.12464077 0 0 Z " fill="#060500" transform="translate(638,520)"/>
<path d="M0 0 C0 7.92 0 15.84 0 24 C-7.875 25.125 -7.875 25.125 -11.09936523 25.20532227 C-11.81958359 25.22526749 -12.53980194 25.24521271 -13.28184509 25.26576233 C-14.40883568 25.29083107 -14.40883568 25.29083107 -15.55859375 25.31640625 C-16.74232323 25.3475779 -16.74232323 25.3475779 -17.94996643 25.37937927 C-20.44573109 25.44423305 -22.94159178 25.50345805 -25.4375 25.5625 C-27.13998348 25.60574642 -28.84245762 25.64936256 -30.54492188 25.69335938 C-34.69651873 25.79984763 -38.84821118 25.90129147 -43 26 C-35.65897605 17.0037939 -26.81564713 9.49136196 -17.375 2.75 C-16.61960937 2.20859375 -15.86421875 1.6671875 -15.0859375 1.109375 C-12 0 -12 0 0 0 Z " fill="#BCD6EE" transform="translate(381,503)"/>
<path d="M0 0 C4.13829244 1.82854782 6.53775446 4.23000579 9 8 C9.36896679 10.80937707 9.51778405 13.1482767 9.4375 15.9375 C9.44458984 16.62779297 9.45167969 17.31808594 9.45898438 18.02929688 C9.38947133 23.67054792 8.1842092 27.82040858 4.15234375 31.84375 C0.0095375 34.06928657 -4.45169203 33.71531253 -9 33 C-13.26722724 30.03906682 -14.99089208 27.0455396 -16 22 C-16.97796258 9.3039501 -16.97796258 9.3039501 -13 4 C-8.68982133 0.27757296 -5.65845068 -0.72016645 0 0 Z " fill="#F9E700" transform="translate(712,527)"/>
<path d="M0 0 C13.19598154 0 26.93832525 5.26677524 36.6875 14.5625 C38 17 38 17 37.75 19.8125 C37.5025 20.534375 37.255 21.25625 37 22 C28.94526218 23.03155536 20.9868879 23.11895318 12.875 23.0625 C11.01101563 23.05573242 11.01101563 23.05573242 9.109375 23.04882812 C6.0728955 23.03714936 3.03644114 23.01921798 0 23 C0 15.41 0 7.82 0 0 Z " fill="#BBD8F0" transform="translate(389,503)"/>
<path d="M0 0 C4.14866582 0.66674986 5.81886615 1.31264078 8.5 4.5625 C9.2975483 9.58705429 9.32360163 11.39976829 6.375 15.5625 C3.5 17.5625 3.5 17.5625 0.5 18.125 C-3.15907504 17.43892343 -4.85167676 16.13515686 -7.5 13.5625 C-8.94430855 10.67388291 -8.87688506 8.76602299 -8.5 5.5625 C-5.88580444 1.91846982 -4.45776553 0.7164266 0 0 Z " fill="#C6D0D6" transform="translate(410.5,559.4375)"/>
<path d="M0 0 C3.0625 2 3.0625 2 5 5 C5.3335619 8.6478897 4.69489471 11.73283905 2.9375 14.9375 C-0.26716095 16.69489471 -3.3521103 17.3335619 -7 17 C-10.04546351 15.03313815 -11.63385671 13.63954428 -12.44140625 10.0234375 C-12.63569916 6.6765855 -12.22224101 4.37040169 -10.5 1.5 C-7.00688124 -0.59587126 -3.90463221 -0.87198308 0 0 Z " fill="#C6D0D7" transform="translate(341,560)"/>
<path d="M0 0 C9.9978099 -0.48182216 9.9978099 -0.48182216 14.25 1.5625 C16 4 16 4 15.9375 7.625 C15 11 15 11 13 13 C8.65604929 13.27917421 4.35649033 13.08542138 0 13 C0 8.71 0 4.42 0 0 Z " fill="#F5E400" transform="translate(607,527)"/>
<path d="M0 0 C2 1 2 1 3.2890625 4.2734375 C3.74216125 5.63806434 4.18713794 7.0054082 4.625 8.375 C4.85445312 9.06078125 5.08390625 9.7465625 5.3203125 10.453125 C6.28795001 13.413635 7 15.86608457 7 19 C2.71 19 -1.58 19 -6 19 C-4.29446483 12.50272314 -2.47390635 6.2436684 0 0 Z " fill="#EFDE00" transform="translate(567,530)"/>
</svg>
